{
  "source": "C:\\Users\\Peter\\Desktop\\stuff\\MIUN\\quantitative_research\\video_compression\\videos\\BVI-HD\\BVI-HD_CDVL_videos\\ORIG\\Surfers_1920x1080_30fps.mp4",
  "output": "C:\\Users\\Peter\\Desktop\\stuff\\MIUN\\quantitative_research\\video_compression\\compressed_videos\\BVI-HD\\h264\\8\\Surfers_1920x1080_30fps_h264.mp4",
  "codec": "h264",
  "ok": "Input #0, mov,mp4,m4a,3gp,3g2,mj2, from 'C:\\Users\\Peter\\Desktop\\stuff\\MIUN\\quantitative_research\\video_compression\\videos\\BVI-HD\\BVI-HD_CDVL_videos\\ORIG\\Surfers_1920x1080_30fps.mp4':\n  Metadata:\n    major_brand     : isom\n    minor_version   : 512\n    compatible_brands: isomiso2avc1mp41\n    encoder         : Lavf54.28.101\n  Duration: 00:00:05.00, start: 0.000000, bitrate: 232762 kb/s\n  Stream #0:0[0x1](und): Video: h264 (High 4:4:4 Predictive) (avc1 / 0x31637661), yuv420p(progressive), 1920x1080, 232759 kb/s, 30 fps, 30 tbr, 30 tbn (default)\n    Metadata:\n      handler_name    : VideoHandler\n      vendor_id       : [0][0][0][0]\n[out#0/mp4 @ 00000200e386abc0] Codec AVOption b:a (set bitrate (in bits/s)) has not been used for any stream. The most likely reason is either wrong type (e.g. a video option with no video streams) or that it is a private option of some decoder which was not actually used for any stream.\nStream mapping:\n  Stream #0:0 -> #0:0 (h264 (native) -> h264 (libx264))\nPress [q] to stop, [?] for help\n[libx264 @ 00000200e38a0a40] using cpu capabilities: MMX2 SSE2Fast SSSE3 SSE4.2 AVX FMA3 BMI2 AVX2\n[libx264 @ 00000200e38a0a40] profile High, level 5.0, 4:2:0, 8-bit\n[libx264 @ 00000200e38a0a40] 264 - core 165 r3222 b35605a - H.264/MPEG-4 AVC codec - Copyleft 2003-2025 - http://www.videolan.org/x264.html - options: cabac=1 ref=5 deblock=1:0:0 analyse=0x3:0x113 me=hex subme=8 psy=1 psy_rd=1.00:0.00 mixed_ref=1 me_range=16 chroma_me=1 trellis=2 8x8dct=1 cqm=0 deadzone=21,11 fast_pskip=1 chroma_qp_offset=-2 threads=18 lookahead_threads=3 sliced_threads=0 nr=0 decimate=1 interlaced=0 bluray_compat=0 constrained_intra=0 bframes=3 b_pyramid=2 b_adapt=1 b_bias=0 direct=3 weightb=1 open_gop=0 weightp=2 keyint=250 keyint_min=25 scenecut=40 intra_refresh=0 rc_lookahead=50 rc=cbr mbtree=1 bitrate=8000 ratetol=1.0 qcomp=0.60 qpmin=0 qpmax=69 qpstep=4 vbv_maxrate=8000 vbv_bufsize=8000 nal_hrd=none filler=0 ip_ratio=1.40 aq=1:1.00\nOutput #0, mp4, to 'C:\\Users\\Peter\\Desktop\\stuff\\MIUN\\quantitative_research\\video_compression\\compressed_videos\\BVI-HD\\h264\\8\\Surfers_1920x1080_30fps_h264.mp4':\n  Metadata:\n    major_brand     : isom\n    minor_version   : 512\n    compatible_brands: isomiso2avc1mp41\n    encoder         : Lavf62.3.100\n  Stream #0:0(und): Video: h264 (avc1 / 0x31637661), yuv420p(tv, progressive), 1920x1080, q=2-31, 8000 kb/s, 30 fps, 15360 tbn (default)\n    Metadata:\n      encoder         : Lavc62.11.100 libx264\n      handler_name    : VideoHandler\n      vendor_id       : [0][0][0][0]\n    Side data:\n      cpb: bitrate max/min/avg: 8000000/0/8000000 buffer size: 8000000 vbv_delay: N/A\nframe=    0 fps=0.0 q=0.0 size=       0KiB time=N/A bitrate=N/A speed=N/A elapsed=0:00:00.51    \nframe=    0 fps=0.0 q=0.0 size=       0KiB time=N/A bitrate=N/A speed=N/A elapsed=0:00:01.03    \nframe=    0 fps=0.0 q=0.0 size=       0KiB time=N/A bitrate=N/A speed=N/A elapsed=0:00:01.57    \nframe=    5 fps=2.3 q=32.0 size=       0KiB time=00:00:00.10 bitrate=   3.8kbits/s speed=0.0465x elapsed=0:00:02.14    \nframe=   13 fps=4.7 q=31.0 size=     256KiB time=00:00:00.33 bitrate=6292.6kbits/s speed=0.12x elapsed=0:00:02.78    \nframe=   30 fps=8.9 q=29.0 size=     768KiB time=00:00:00.93 bitrate=6741.3kbits/s speed=0.278x elapsed=0:00:03.36    \nframe=   37 fps=9.5 q=29.0 size=    1024KiB time=00:00:01.10 bitrate=7626.4kbits/s speed=0.282x elapsed=0:00:03.90    \nframe=   49 fps= 11 q=30.0 size=    1280KiB time=00:00:01.56 bitrate=6693.3kbits/s speed=0.349x elapsed=0:00:04.49    \nframe=   57 fps= 11 q=30.0 size=    1536KiB time=00:00:01.83 bitrate=6863.6kbits/s speed=0.364x elapsed=0:00:05.04    \nframe=   73 fps= 13 q=30.0 size=    2048KiB time=00:00:02.23 bitrate=7512.4kbits/s speed=0.399x elapsed=0:00:05.59    \nframe=   85 fps= 14 q=30.0 size=    2560KiB time=00:00:02.70 bitrate=7767.4kbits/s speed=0.439x elapsed=0:00:06.14    \nframe=   99 fps= 15 q=31.0 size=    3072KiB time=00:00:03.20 bitrate=7864.4kbits/s speed=0.477x elapsed=0:00:06.71    \nframe=  110 fps= 15 q=31.0 size=    3328KiB time=00:00:03.53 bitrate=7716.0kbits/s speed=0.486x elapsed=0:00:07.26    \nframe=  128 fps= 16 q=31.0 size=    4096KiB time=00:00:04.13 bitrate=8118.1kbits/s speed=0.529x elapsed=0:00:07.80    \nframe=  143 fps= 17 q=-1.0 size=    4608KiB time=00:00:04.66 bitrate=8089.1kbits/s speed=0.557x elapsed=0:00:08.38    \n[mp4 @ 00000200e386acc0] Starting second pass: moving the moov atom to the beginning of the file\n[out#0/mp4 @ 00000200e386abc0] video:4927KiB audio:0KiB subtitle:0KiB other streams:0KiB global headers:0KiB muxing overhead: 0.053176%\nframe=  150 fps= 18 q=-1.0 Lsize=    4930KiB time=00:00:04.93 bitrate=8186.3kbits/s speed=0.578x elapsed=0:00:08.53    \n[libx264 @ 00000200e38a0a40] frame I:2     Avg QP:24.30  size: 62264\n[libx264 @ 00000200e38a0a40] frame P:41    Avg QP:27.42  size: 49823\n[libx264 @ 00000200e38a0a40] frame B:107   Avg QP:28.78  size: 26892\n[libx264 @ 00000200e38a0a40] consecutive B-frames:  2.7%  4.0%  8.0% 85.3%\n[libx264 @ 00000200e38a0a40] mb I  I16..4: 37.9% 54.9%  7.2%\n[libx264 @ 00000200e38a0a40] mb P  I16..4:  3.6% 17.9%  2.8%  P16..4: 39.2% 10.8%  6.2%  0.0%  0.0%    skip:19.5%\n[libx264 @ 00000200e38a0a40] mb B  I16..4:  0.4%  2.2%  0.3%  B16..8: 44.5%  8.0%  1.4%  direct:10.8%  skip:32.4%  L0:45.1% L1:43.8% BI:11.2%\n[libx264 @ 00000200e38a0a40] 8x8 transform intra:71.7% inter:82.7%\n[libx264 @ 00000200e38a0a40] direct mvs  spatial:91.6% temporal:8.4%\n[libx264 @ 00000200e38a0a40] coded y,uvDC,uvAC intra: 74.1% 39.3% 2.3% inter: 28.3% 16.3% 0.0%\n[libx264 @ 00000200e38a0a40] i16 v,h,dc,p:  5% 64%  5% 26%\n[libx264 @ 00000200e38a0a40] i8 v,h,dc,ddl,ddr,vr,hd,vl,hu:  4% 43%  4%  3%  5%  3% 18%  3% 18%\n[libx264 @ 00000200e38a0a40] i4 v,h,dc,ddl,ddr,vr,hd,vl,hu:  2% 45%  3%  2%  5%  3% 18%  2% 19%\n[libx264 @ 00000200e38a0a40] i8c dc,h,v,p: 26% 62%  9%  4%\n[libx264 @ 00000200e38a0a40] Weighted P-Frames: Y:0.0% UV:0.0%\n[libx264 @ 00000200e38a0a40] ref P L0: 47.7% 13.0% 18.8% 10.8%  9.5%  0.1%\n[libx264 @ 00000200e38a0a40] ref B L0: 78.8% 13.5%  6.0%  1.7%\n[libx264 @ 00000200e38a0a40] ref B L1: 92.6%  7.4%\n[libx264 @ 00000200e38a0a40] kb/s:8071.60\n",
  "seconds": 8.79897165298462,
  "probe_out": {}
}